<?xml version="1.0" encoding="UTF-8"?>
<svg version="1.1" xmlns="http://www.w3.org/2000/svg" width="500" height="500">
<path d="M0 0 C5.85679556 5.10502777 9.56385077 14.53202398 11 22 C11.13386978 24.69173883 11.09468252 27.30154832 11 30 C12.32 29.01 13.64 28.02 15 27 C16.49145982 33.2370138 15.69437315 38.16672748 13 44 C10.93297915 46.95493281 8.73528933 49.64040101 6 52 C5.34 52 4.68 52 4 52 C4 55.96 4 59.92 4 64 C4.433125 63.175 4.86625 62.35 5.3125 61.5 C8.6257093 56.42702751 14.0724791 53.34731592 19 50 C19.66 50.33 20.32 50.66 21 51 C20.16890998 58.12158172 18.71555935 63.35441503 13 68 C9.28297357 69.70983216 7.11963775 70 3 70 C3.33 81.22 3.66 92.44 4 104 C5.98 101.36 7.96 98.72 10 96 C13.66882154 92.05428627 17.35648814 88.65248092 21.625 85.375 C28.73375282 79.907657 32.05681063 75.46783533 35 67 C40.63397365 75.45096047 37.86082376 93.54423739 36.27734375 103.31640625 C33.82447589 115.4995508 29.29857694 124.64639283 19 132 C15.44423296 133.80531999 13.77283383 134.11338522 10 133 C10.24234375 132.31373535 10.4846875 131.6274707 10.734375 130.92041016 C11.8261358 127.82306378 12.91312453 124.72406385 14 121.625 C14.3815625 120.54476562 14.763125 119.46453125 15.15625 118.3515625 C15.5171875 117.3203125 15.878125 116.2890625 16.25 115.2265625 C16.58515625 114.27346191 16.9203125 113.32036133 17.265625 112.33837891 C18.09987485 110.09047827 18.09987485 110.09047827 18 108 C10.46178777 118.17658651 7.21913372 128.26388256 6.55102539 140.86206055 C6.49710381 141.85170555 6.49710381 141.85170555 6.4420929 142.86134338 C6.36477384 144.28855703 6.28899968 145.71585504 6.21461678 147.14322472 C6.0952834 149.43223387 5.97177185 151.72098607 5.84727478 154.00971985 C5.5819386 158.9021159 5.3220194 163.7947925 5.0625 168.6875 C3.12441776 205.16317817 3.12441776 205.16317817 1.93359375 221.51953125 C1.85456314 222.62173508 1.77553253 223.7239389 1.69410706 224.85954285 C1.61772507 225.8685817 1.54134308 226.87762054 1.46264648 227.91723633 C1.39722153 228.78472 1.33179657 229.65220367 1.26438904 230.54597473 C0.99198889 233.07435812 0.53634535 235.51534842 0 238 C-0.33 238 -0.66 238 -1 238 C-1.99877671 231.05367248 -2.34374583 224.13642398 -2.6484375 217.12890625 C-2.76776137 214.58917069 -2.88756872 212.0494578 -3.0078125 209.50976562 C-3.19248766 205.54779947 -3.37398382 201.58578989 -3.546875 197.62329102 C-4.58853357 161.59351697 -4.58853357 161.59351697 -23 132 C-22.60675537 132.82407349 -22.60675537 132.82407349 -22.20556641 133.66479492 C-21.01043932 136.17160174 -19.81769989 138.67953751 -18.625 141.1875 C-18.2125 142.05181641 -17.8 142.91613281 -17.375 143.80664062 C-16.97539062 144.64775391 -16.57578125 145.48886719 -16.1640625 146.35546875 C-15.61419678 147.51018677 -15.61419678 147.51018677 -15.05322266 148.68823242 C-14.53187744 149.83255737 -14.53187744 149.83255737 -14 151 C-13.60474121 151.85891846 -13.20948242 152.71783691 -12.80224609 153.6027832 C-12 156 -12 156 -13 159 C-21.83688437 157.2289334 -28.06423227 153.45037498 -33.390625 146.07421875 C-35.47401167 142.49773829 -37.1234364 138.72964711 -38.83203125 134.96484375 C-39.5116646 133.47594268 -40.19268661 131.98767481 -40.875 130.5 C-41.21418457 129.75806396 -41.55336914 129.01612793 -41.90283203 128.25170898 C-44.27335563 123.19904629 -46.96020043 118.88605782 -50.65234375 114.6640625 C-52 113 -52 113 -53 110 C-40.17083487 107.86609077 -28.7246138 110.64959999 -18 118 C-13.1348321 121.9084194 -8.611942 125.88308217 -5 131 C-4.61051301 119.42358099 -5.73257008 110.41648933 -13 101 C-15.24994772 98.98902469 -17.39685261 97.56188843 -20 96 C-17.37119814 99.9432028 -14.51392356 103.70643339 -11.6796875 107.50390625 C-10 110 -10 110 -10 112 C-17.59395465 111.75892207 -22.25130879 110.00818183 -28 105 C-29.62875716 103.18847801 -31.23170333 101.35352197 -32.8125 99.5 C-37.76635283 93.78161555 -43.05249085 90.82914032 -50 88 C-44.97162313 82.54497297 -38.02604212 81.06787458 -30.875 80.6875 C-21.87263477 80.82231079 -13.44496258 84.81283592 -7 91 C-5.43928263 92.94537009 -4.24263454 94.82538955 -3 97 C-2.67 93.7 -2.34 90.4 -2 87 C-3.546875 86.46375 -5.09375 85.9275 -6.6875 85.375 C-12.71509643 82.96225631 -15.3348655 80.25097688 -18.3125 74.4375 C-19.04379828 71.84471518 -19.15318051 69.68065884 -19 67 C-11.99461307 69.18918341 -6.18905433 74.06550637 -2 80 C-1.67 76.7 -1.34 73.4 -1 70 C-2.36125 69.773125 -3.7225 69.54625 -5.125 69.3125 C-10.02603929 68.22423773 -12.50403368 66.58123379 -16 63 C-17.86562073 59.977062 -18.22880244 57.779283 -18.125 54.25 C-18.10695313 53.45078125 -18.08890625 52.6515625 -18.0703125 51.828125 C-18.04710937 51.22484375 -18.02390625 50.6215625 -18 50 C-12.22382357 53.00842522 -5.00943967 56.98112067 -2 63 C-1.49964305 59.54614716 -1.32943642 56.43852901 -2 53 C-3.82227587 50.85064897 -5.78341847 49.33459374 -8.0234375 47.6328125 C-13.02109284 43.50431461 -13.4333656 37.2885877 -14.08203125 31.234375 C-14 29 -14 29 -12 26 C-11.01 27.32 -10.02 28.64 -9 30 C-8.99742187 29.37996094 -8.99484375 28.75992188 -8.9921875 28.12109375 C-8.54832548 17.95665353 -4.64442116 8.95229006 0 0 Z M20 104 C21 106 21 106 21 106 Z " fill="#B7D966" transform="translate(374,114)"/>
<path d="M0 0 C12.39809595 9.75068298 20.31620021 21.37006332 23.1328125 37.015625 C24.00000394 44.58112276 23.05008598 51.60076681 21.59765625 59.04296875 C15.07552401 58.4092393 8.76490492 57.34909261 2.34765625 56.04296875 C-5.57586369 54.49361543 -13.31423289 53.26872913 -21.40234375 53.04296875 C-22.71203125 53.00300781 -24.02171875 52.96304688 -25.37109375 52.921875 C-40.70731925 52.61232028 -55.44956054 54.77816892 -70.40234375 58.04296875 C-73.74760456 43.52968339 -70.9395785 32.59483433 -63.40234375 20.04296875 C-59.5021381 14.5585736 -55.01217614 10.70653276 -49.40234375 7.04296875 C-61.40973497 13.42598282 -69.61791023 20.9218883 -73.7578125 34.328125 C-75.17052012 42.47045804 -74.67976414 50.81283055 -74.40234375 59.04296875 C-78.85734375 60.03296875 -78.85734375 60.03296875 -83.40234375 61.04296875 C-87.85177982 47.5522786 -86.23448258 33.07443022 -80.1171875 20.375 C-72.10054321 5.97183686 -60.18108453 -3.38562037 -44.40234375 -7.95703125 C-29.33582821 -11.7299906 -12.70448807 -8.77526495 0 0 Z " fill="#FFB200" transform="translate(271.40234375,157.95703125)"/>
<path d="M0 0 C2.4375 0.875 2.4375 0.875 4.4375 3.875 C4.4375 5.855 4.4375 7.835 4.4375 9.875 C9.3875 9.875 14.3375 9.875 19.4375 9.875 C19.7675 7.895 20.0975 5.915 20.4375 3.875 C21.75 1.9375 21.75 1.9375 23.4375 0.875 C26.41147616 1.14536147 27.29196026 1.72946026 29.4375 3.875 C29.4375 6.185 29.4375 8.495 29.4375 10.875 C34.3875 11.205 39.3375 11.535 44.4375 11.875 C44.7675 10.225 45.0975 8.575 45.4375 6.875 C46.0975 6.215 46.7575 5.555 47.4375 4.875 C50.73464793 5.20471479 52.0601839 5.4976839 54.4375 7.875 C54.5625 11 54.5625 11 54.4375 13.875 C55.42492187 14.00777344 56.41234375 14.14054688 57.4296875 14.27734375 C59.35167969 14.54224609 59.35167969 14.54224609 61.3125 14.8125 C62.58867187 14.98652344 63.86484375 15.16054687 65.1796875 15.33984375 C68.4375 15.875 68.4375 15.875 70.4375 16.875 C70.4375 18.855 70.4375 20.835 70.4375 22.875 C65.1575 22.215 59.8775 21.555 54.4375 20.875 C54.4375 24.835 54.4375 28.795 54.4375 32.875 C55.778125 32.978125 57.11875 33.08125 58.5 33.1875 C64.32759795 33.74211515 69.93581274 35.01561591 75.62890625 36.3515625 C83.34519696 37.41205784 90.35372604 35.53290821 97.75 33.4375 C104.93909926 31.47810708 112.03275819 29.81148205 119.4375 28.875 C120.2521875 28.76414063 121.066875 28.65328125 121.90625 28.5390625 C143.67993326 26.05256163 165.79014736 28.3808111 186.9375 33.8125 C187.87440674 34.05307129 188.81131348 34.29364258 189.77661133 34.54150391 C197.97636153 36.78273426 204.72439151 39.44775294 210.4375 45.875 C210.1075 46.535 209.7775 47.195 209.4375 47.875 C208.78080322 47.78412109 208.12410645 47.69324219 207.44750977 47.59960938 C182.22109456 44.19092962 155.98903291 42.11679001 131.25 49.625 C122.35531474 52.31052711 113.3485155 49.25661215 104.625 47 C63.95940112 36.95085032 16.24813558 33.73883209 -24.41015625 46 C-27.5625 46.875 -27.5625 46.875 -31.5625 46.875 C-31.66128601 40.80611949 -31.73392949 34.73770561 -31.78222656 28.66821289 C-31.80235731 26.60302582 -31.82966445 24.53789584 -31.86425781 22.47290039 C-31.91271162 19.50652999 -31.93545385 16.54091228 -31.953125 13.57421875 C-31.97377014 12.6491301 -31.99441528 11.72404144 -32.01568604 10.7709198 C-32.01792775 4.38491684 -32.01792775 4.38491684 -29.67089844 1.75708008 C-27.5625 0.875 -27.5625 0.875 -25.4375 1.0625 C-23.5625 1.875 -23.5625 1.875 -21.5625 3.875 C-21.5625 6.185 -21.5625 8.495 -21.5625 10.875 C-13.6425 10.38 -13.6425 10.38 -5.5625 9.875 C-5.5625 7.565 -5.5625 5.255 -5.5625 2.875 C-3.91229442 0.0957064 -3.2342745 -0.15776949 0 0 Z M-21.5625 17.875 C-21.63521741 20.22813555 -21.64620868 22.58333668 -21.625 24.9375 C-21.604375 27.226875 -21.58375 29.51625 -21.5625 31.875 C-13.6425 31.38 -13.6425 31.38 -5.5625 30.875 C-5.5625 26.255 -5.5625 21.635 -5.5625 16.875 C-8.04173801 16.84814905 -10.5206884 16.82823453 -13 16.8125 C-13.70705078 16.80412109 -14.41410156 16.79574219 -15.14257812 16.78710938 C-18.64253629 16.44202695 -18.64253629 16.44202695 -21.5625 17.875 Z M4.4375 16.875 C4.4375 21.165 4.4375 25.455 4.4375 29.875 C9.3875 29.875 14.3375 29.875 19.4375 29.875 C19.4375 25.585 19.4375 21.295 19.4375 16.875 C14.4875 16.875 9.5375 16.875 4.4375 16.875 Z M29.4375 17.875 C29.4375 21.835 29.4375 25.795 29.4375 29.875 C32.98738771 30.76247193 35.57930778 30.98045467 39.1875 30.9375 C40.92 30.916875 42.6525 30.89625 44.4375 30.875 C44.4375 26.915 44.4375 22.955 44.4375 18.875 C39.35663204 18.02818867 34.58921623 17.78461901 29.4375 17.875 Z " fill="#B7D966" transform="translate(104.5625,190.125)"/>
<path d="M0 0 C0 0.66 0 1.32 0 2 C-0.63276855 2.08975098 -1.26553711 2.17950195 -1.91748047 2.27197266 C-36.22075594 7.2539821 -65.77048902 19.04765519 -88 47 C-93.21358051 54.31662761 -97.78197202 62.07412345 -102 70 C-108.87097252 69.43267199 -115.09154407 68.03419435 -121.6875 66.0625 C-122.59822266 65.79759766 -123.50894531 65.53269531 -124.44726562 65.25976562 C-128.99662144 63.92832743 -133.51577714 62.53936009 -138 61 C-134.90808933 50.81931852 -128.80040572 42.07458701 -122 34 C-121.35675781 33.21109375 -120.71351563 32.4221875 -120.05078125 31.609375 C-106.5185424 15.700865 -87.758865 4.43738958 -68 -2 C-67.03199463 -2.31541748 -67.03199463 -2.31541748 -66.04443359 -2.63720703 C-45.12463843 -9.08309659 -20.22010155 -8.51776574 0 0 Z " fill="#B7D966" transform="translate(318,284)"/>
<path d="M0 0 C0 0.33 0 0.66 0 1 C-0.95700806 1.05945801 -0.95700806 1.05945801 -1.93334961 1.12011719 C-38.80471598 3.51707052 -69.88029514 14.57834618 -95 43 C-101.42225511 50.79803088 -107.0805389 59.17818158 -112 68 C-117.63383861 67.53490117 -121.26423972 65.32412112 -125.875 62.3125 C-126.93074219 61.63791748 -126.93074219 61.63791748 -128.0078125 60.94970703 C-132.83769925 57.83599532 -137.49256942 54.56838254 -142 51 C-130.8612681 27.18403732 -106.61945904 9.66381911 -82.53515625 0.85644531 C-57.04138356 -7.75605031 -25.23129262 -11.03869052 0 0 Z " fill="#B7D966" transform="translate(283,271)"/>
<path d="M0 0 C0.68758392 -0.00133942 1.37516785 -0.00267883 2.08358765 -0.00405884 C17.21226496 0.00232058 31.94263451 1.22054708 46.3125 6.25 C46.3125 6.58 46.3125 6.91 46.3125 7.25 C45.33361816 7.30945801 45.33361816 7.30945801 44.33496094 7.37011719 C10.95496175 9.48632729 -19.6472463 16.17150936 -45.6875 38.25 C-46.20973145 38.6924707 -46.73196289 39.13494141 -47.27001953 39.59082031 C-53.82990252 45.2228585 -59.56370399 51.17684205 -64.84765625 58.03515625 C-66.6875 60.25 -66.6875 60.25 -69.6875 62.25 C-75.97210376 55.51901317 -82.06249891 48.72541497 -87.8125 41.52734375 C-89.59044474 39.27840874 -89.59044474 39.27840874 -91.4375 37.56640625 C-92.6875 36.25 -92.6875 36.25 -92.6875 34.25 C-91.38085938 33.06420898 -91.38085938 33.06420898 -89.53125 31.74609375 C-88.84708008 31.2572168 -88.16291016 30.76833984 -87.45800781 30.26464844 C-86.70874023 29.74418945 -85.95947266 29.22373047 -85.1875 28.6875 C-84.4150293 28.1502832 -83.64255859 27.61306641 -82.84667969 27.05957031 C-57.83351437 9.90447815 -30.49648502 0.03492985 0 0 Z " fill="#B7D966" transform="translate(200.6875,251.75)"/>
<path d="M0 0 C0.495 0.99 0.495 0.99 1 2 C0.34257812 1.97679687 -0.31484375 1.95359375 -0.9921875 1.9296875 C-32.95328718 1.32337938 -63.67331529 11.09435677 -90.88183594 27.44384766 C-91.65043945 27.90452637 -92.41904297 28.36520508 -93.2109375 28.83984375 C-93.89462402 29.25613037 -94.57831055 29.67241699 -95.28271484 30.10131836 C-97 31 -97 31 -99 31 C-111 6.30835735 -111 6.30835735 -111 -1 C-74.06287114 -9.93804971 -36.66035962 -11.61933992 0 0 Z " fill="#B7D966" transform="translate(199,245)"/>
<path d="M0 0 C3.3065618 1.4421017 5.46961394 3.23059383 7.99902344 5.7878418 C8.77372986 6.56592697 9.54843628 7.34401215 10.34661865 8.14567566 C11.17582825 8.98834488 12.00503784 9.8310141 12.859375 10.69921875 C13.72258362 11.56762894 14.58579224 12.43603912 15.47515869 13.33076477 C18.2382215 16.11164585 20.99453374 18.89909318 23.75 21.6875 C26.4919961 24.4572247 29.23546835 27.22544412 31.98199463 29.99067688 C33.690027 31.7108409 35.39538039 33.43367061 37.09759521 35.15959167 C42.46937398 40.57593028 48.04558974 45.63986956 53.85614014 50.57719421 C57.94509256 54.28620329 57.94509256 54.28620329 58.1875 57.4375 C56.55442859 60.96149621 54.38462442 63.94662482 52 67 C48.62360555 66.34795651 46.16692161 65.05648571 43.24609375 63.26171875 C42.31925781 62.69517578 41.39242187 62.12863281 40.4375 61.54492188 C39.4475 60.93197266 38.4575 60.31902344 37.4375 59.6875 C36.40753906 59.05521484 35.37757813 58.42292969 34.31640625 57.77148438 C27.25647113 53.42657369 20.23119048 49.02740783 13.24853516 44.55932617 C8.78283796 41.71290652 4.27283404 38.96466645 -0.29296875 36.28125 C-1.35515625 35.6521875 -2.41734375 35.023125 -3.51171875 34.375 C-5.59691665 33.14388685 -7.68921568 31.92470737 -9.7890625 30.71875 C-10.72878906 30.161875 -11.66851562 29.605 -12.63671875 29.03125 C-13.47936279 28.54205078 -14.32200684 28.05285156 -15.19018555 27.54882812 C-15.78742432 27.03771484 -16.38466309 26.52660156 -17 26 C-17 21.49018627 -16.4295323 20.75367593 -13.7890625 17.3046875 C-13.12132813 16.42425781 -12.45359375 15.54382813 -11.765625 14.63671875 C-11.05921875 13.72535156 -10.3528125 12.81398438 -9.625 11.875 C-8.57699219 10.49634766 -8.57699219 10.49634766 -7.5078125 9.08984375 C-2.39814635 2.39814635 -2.39814635 2.39814635 0 0 Z " fill="#FFB200" transform="translate(132,102)"/>
<path d="M0 0 C5.51614196 0.58296656 9.92773666 2.55991076 14.89453125 4.8671875 C15.75173264 5.25823669 16.60893402 5.64928589 17.49211121 6.05218506 C20.26851551 7.32013665 23.04042819 8.59760838 25.8125 9.875 C28.66395679 11.17954454 31.51659278 12.48148399 34.36935425 13.78317261 C36.25783152 14.6449649 38.14595565 15.50753149 40.03372192 16.37088013 C50.35430726 21.08742054 60.73874034 25.65292372 71.14453125 30.17822266 C72.44417333 30.75382729 73.72865733 31.36432867 75 32 C74.85831863 33.43791516 74.71148957 34.8753237 74.5625 36.3125 C74.44068359 37.51326172 74.44068359 37.51326172 74.31640625 38.73828125 C74 41 74 41 73 44 C63.01267831 42.65202464 53.10561772 41.00232882 43.1953125 39.1796875 C41.73562812 38.91326957 40.27590027 38.6470897 38.81613159 38.38113403 C35.02485498 37.68975553 31.23416661 36.99520503 27.44360352 36.29992676 C23.5552095 35.58730701 19.6662514 34.87777917 15.77734375 34.16796875 C8.18434945 32.78162246 0.59197566 31.39191505 -7 30 C-7.10081036 25.350392 -7.12150409 21.38614364 -5.72265625 16.9140625 C-5.45646484 16.04652344 -5.19027344 15.17898437 -4.91601562 14.28515625 C-4.63435547 13.40730469 -4.35269531 12.52945313 -4.0625 11.625 C-3.78470703 10.72394531 -3.50691406 9.82289063 -3.22070312 8.89453125 C-1.20076885 2.4015377 -1.20076885 2.4015377 0 0 Z " fill="#FFB200" transform="translate(102,149)"/>
<path d="M0 0 C7.8395196 16.05198868 15.65515332 32.11357086 23.1875 48.3125 C23.70272217 49.41754883 24.21794434 50.52259766 24.7487793 51.66113281 C28.00803434 58.70486146 31.06700275 65.81443852 34 73 C31.03 74.98 28.06 76.96 25 79 C20.60371562 76.80185781 18.48154899 74.2195638 15.5625 70.4375 C15.03881836 69.77057129 14.51513672 69.10364258 13.97558594 68.41650391 C12.30742273 66.28496203 10.65197101 64.14410956 9 62 C8.48228027 61.32952637 7.96456055 60.65905273 7.43115234 59.96826172 C4.20935118 55.78898567 1.01032873 51.59271123 -2.18164062 47.390625 C-4.18465464 44.7572317 -6.19351978 42.1283665 -8.203125 39.5 C-9.6354592 37.62503249 -11.06775145 35.75003294 -12.5 33.875 C-13.17063477 32.99827637 -13.84126953 32.12155273 -14.53222656 31.21826172 C-15.79024676 29.56913237 -17.04407641 27.91679482 -18.29296875 26.26074219 C-19.38836772 24.81002788 -20.49429556 23.36717003 -21.61328125 21.93457031 C-22.82102753 20.34670003 -23.9231388 18.67939068 -25 17 C-23.74379738 13.23139215 -22.47406582 12.73769781 -19.16015625 10.64453125 C-18.17982422 10.02255859 -17.19949219 9.40058594 -16.18945312 8.75976562 C-15.15755859 8.11716797 -14.12566406 7.47457031 -13.0625 6.8125 C-12.03447266 6.15830078 -11.00644531 5.50410156 -9.94726562 4.83007812 C-2.27655761 0 -2.27655761 0 0 0 Z " fill="#FFB200" transform="translate(177,70)"/>
<path d="M0 0 C3.63292317 1.34847736 6.79931903 2.98484994 10.08203125 5.0390625 C11.01337891 5.61914062 11.94472656 6.19921875 12.90429688 6.796875 C13.86400391 7.40015625 14.82371094 8.0034375 15.8125 8.625 C16.79154297 9.23601562 17.77058594 9.84703125 18.77929688 10.4765625 C21.18845472 11.98081715 23.59524068 13.4887274 26 15 C23.26053093 20.06640633 20.22567855 24.44272298 16.5625 28.875 C15.48414158 30.20187856 14.40737436 31.53005156 13.33203125 32.859375 C12.50372803 33.88321289 12.50372803 33.88321289 11.65869141 34.92773438 C8.96997916 38.28684381 6.3568195 41.70216075 3.75 45.125 C3.22559326 45.81343994 2.70118652 46.50187988 2.16088867 47.21118164 C1.04908285 48.67242635 -0.06214412 50.13411163 -1.17285156 51.59619141 C-3.20370531 54.26799605 -5.23831004 56.93691809 -7.2734375 59.60546875 C-10.07099365 63.27422105 -12.86835013 66.94312365 -15.6640625 70.61328125 C-16.52185303 71.73923706 -16.52185303 71.73923706 -17.39697266 72.88793945 C-18.93899388 74.91962169 -20.47181625 76.95789586 -22 79 C-26.51179922 78.13157847 -29.40086147 75.69935389 -33 73 C-31.08827232 66.81944031 -28.76089066 61.03105419 -25.9375 55.21484375 C-25.54923538 54.40354507 -25.16097076 53.5922464 -24.76094055 52.75636292 C-23.93594458 51.03359928 -23.10865162 49.31193398 -22.27920532 47.59130859 C-20.12736071 43.12714352 -17.99222502 38.65499514 -15.85546875 34.18359375 C-15.43524948 33.30532928 -15.01503021 32.42706482 -14.58207703 31.52218628 C-9.58978193 21.07491019 -4.76543238 10.55261551 0 0 Z " fill="#FFB200" transform="translate(303,70)"/>
<path d="M0 0 C1.08872194 12.17086531 2.17290386 24.34211949 3.24841309 36.51416016 C3.62450987 40.76883103 4.00091771 45.02345232 4.38574219 49.27734375 C5.37548839 60.22696842 6.27507858 70.99685689 6 82 C0.555 82.99 0.555 82.99 -5 84 C-8.05007852 76.27413179 -10.4421768 68.34646005 -12.88671875 60.4140625 C-13.35312703 58.9056709 -13.81966666 57.39731991 -14.28633118 55.88900757 C-15.25864354 52.7443658 -16.22918296 49.59918379 -17.19848633 46.45361328 C-18.4424574 42.41730459 -19.69118749 38.38248618 -20.94125652 34.34806252 C-21.903193 31.24153958 -22.8624902 28.13420655 -23.82099342 25.02662277 C-24.2806582 23.53756828 -24.7411846 22.04877949 -25.20258141 20.56026077 C-25.84438904 18.48842641 -26.48260627 16.41551997 -27.11987305 14.34228516 C-27.48388718 13.16284332 -27.84790131 11.98340149 -28.22294617 10.76821899 C-29 8 -29 8 -29 6 C-5.52427184 0 -5.52427184 0 0 0 Z " fill="#FFB200" transform="translate(228,55)"/>
<path d="M0 0 C3.36588055 3.05989141 6.15557867 6.34867276 8.875 10 C9.49117188 10.825 10.10734375 11.65 10.7421875 12.5 C12 15 12 15 11.91796875 17.33203125 C7.33065369 30.66452566 0.9198064 37.9359284 -11.28369141 44.48876953 C-14.57210833 46.31829503 -17.77738337 48.27263797 -20.98046875 50.24609375 C-21.59638382 50.62501266 -22.21229889 51.00393158 -22.84687805 51.39433289 C-24.1049784 52.168725 -25.3629173 52.94337946 -26.62069702 53.71829224 C-42.23538044 63.32910313 -42.23538044 63.32910313 -50 67 C-52.31 63.7 -54.62 60.4 -57 57 C-52.51451173 51.62832639 -47.77416042 46.62763744 -42.8203125 41.6875 C-42.04871796 40.91494873 -41.27712341 40.14239746 -40.48214722 39.34643555 C-38.85797892 37.72159016 -37.23256077 36.09799324 -35.60595703 34.47558594 C-33.13590106 32.01087746 -30.67121693 29.54088845 -28.20703125 27.0703125 C-26.62011211 25.48405436 -25.03288268 23.89810657 -23.4453125 22.3125 C-22.71796906 21.58313232 -21.99062561 20.85376465 -21.24124146 20.10229492 C-17.18048629 16.05980542 -13.02682685 12.18800341 -8.67892456 8.45530701 C-6.6987575 6.73888027 -4.83350185 4.93419981 -3 3.0625 C-2.4225 2.47597656 -1.845 1.88945313 -1.25 1.28515625 C-0.63125 0.64900391 -0.63125 0.64900391 0 0 Z " fill="#FFB200" transform="translate(347,102)"/>
<path d="M0 0 C2.08343696 0.26817641 4.15665905 0.61624673 6.22265625 0.99609375 C8.11274414 1.33930664 8.11274414 1.33930664 10.04101562 1.68945312 C11.38153308 1.93868024 12.72202758 2.18803082 14.0625 2.4375 C15.40680597 2.68346288 16.75120598 2.92891241 18.09570312 3.17382812 C21.39809811 3.77749172 24.69943054 4.38644676 28 5 C27.4120598 9.7599486 26.47968072 14.17241554 25.08227539 18.75805664 C24.89027054 19.39317673 24.69826569 20.02829681 24.5004425 20.68266296 C23.87108485 22.76002045 23.23447287 24.83507442 22.59765625 26.91015625 C22.15504539 28.3653845 21.71286807 29.82074466 21.27110291 31.27622986 C20.11089433 35.09423842 18.94439375 38.91029682 17.77667236 42.72601318 C16.82656473 45.834386 15.88090009 48.94410169 14.93547916 52.05390263 C13.80346842 55.77725634 12.66964448 59.50005674 11.53515625 63.22265625 C11.32054308 63.92687273 11.10592991 64.63108921 10.88481331 65.35664558 C10.27319474 67.36183358 9.66038387 69.36665282 9.04711914 71.37133789 C8.69927872 72.5093837 8.35143829 73.6474295 7.99305725 74.81996155 C7.03322297 77.89361106 6.02901531 80.94889245 5 84 C1.37 83.34 -2.26 82.68 -6 82 C-7.02201512 77.91193951 -6.91906425 74.61695241 -6.57861328 70.4934082 C-6.49345963 69.36840408 -6.49345963 69.36840408 -6.40658569 68.22067261 C-6.21759965 65.74683015 -6.01919196 63.2738465 -5.8203125 60.80078125 C-5.68631999 59.08256885 -5.55277094 57.36432181 -5.41964722 55.64604187 C-5.13951548 52.04876479 -4.85487342 48.4518818 -4.56689453 44.85522461 C-4.19722244 40.23524102 -3.83745056 35.61455166 -3.48085213 30.99354267 C-3.20637379 27.44779549 -2.92737244 23.90241594 -2.64690781 20.35713768 C-2.51249591 18.65270953 -2.37935047 16.94818103 -2.24747086 15.24355507 C-2.06287676 12.86812147 -1.87237534 10.49323686 -1.68017578 8.1184082 C-1.62609558 7.40828079 -1.57201538 6.69815338 -1.51629639 5.96650696 C-1.11435511 1.11435511 -1.11435511 1.11435511 0 0 Z " fill="#FFB200" transform="translate(253,55)"/>
<path d="M0 0 C2.77008158 2.88523509 4.00286293 6.17786971 5.4375 9.875 C9.5832282 19.96416155 15.0548225 25.03654833 24 31 C23.67 32.98 23.34 34.96 23 37 C16.38773978 34.45093119 9.92933967 31.63846895 3.48779297 28.68652344 C-22.42234991 16.83435245 -48.83953991 6.61251507 -76 -2 C-76 -2.66 -76 -3.32 -76 -4 C-74.54313397 -4.31927064 -73.08437649 -4.62990834 -71.625 -4.9375 C-70.81289062 -5.11152344 -70.00078125 -5.28554687 -69.1640625 -5.46484375 C-47.70273983 -9.09472178 -20.18728405 -9.48674583 0 0 Z " fill="#B7D966" transform="translate(321,248)"/>
<path d="M0 0 C1.73152958 1.07955259 3.46011684 2.16382512 5.1875 3.25 C6.15042969 3.85328125 7.11335938 4.4565625 8.10546875 5.078125 C15.67692308 10.10532544 15.67692308 10.10532544 16.8125 13.25 C16.874375 13.8275 16.93625 14.405 17 15 C17.95261719 15.04898437 18.90523438 15.09796875 19.88671875 15.1484375 C21.14097656 15.22320312 22.39523437 15.29796875 23.6875 15.375 C24.92886719 15.44460938 26.17023438 15.51421875 27.44921875 15.5859375 C30.75749998 15.97172167 33.12162406 16.33858447 36 18 C36.92578125 19.953125 36.92578125 19.953125 37.3125 22.25 C37.45300781 22.99765625 37.59351563 23.7453125 37.73828125 24.515625 C38.03772474 27.35810351 38.04540102 30.14386332 38 33 C36.27656245 33.84511824 34.54595947 34.67563354 32.8125 35.5 C31.84957031 35.9640625 30.88664062 36.428125 29.89453125 36.90625 C26.90567771 38.03564135 25.1454895 38.52424825 22 38 C15.68190091 33.12906327 12.36334129 26.44763471 10 19 C10 21.31 10 23.62 10 26 C7.8125 26.375 7.8125 26.375 5 26 C0.87380712 22.06572306 -1.07662994 18.72489439 -2 13 C-1.72821847 1.72821847 -1.72821847 1.72821847 0 0 Z " fill="#B7D966" transform="translate(265,310)"/>
<path d="M0 0 C0 5.94 0 11.88 0 18 C-2.0728125 18.556875 -2.0728125 18.556875 -4.1875 19.125 C-8.50369905 20.3991322 -12.39718215 22.08583732 -16.4375 24.0625 C-24.06409968 27.68220847 -30.63760564 29.67247887 -39 28 C-39.66 24.37 -40.32 20.74 -41 17 C-31.84527775 12.56934917 -22.56969483 8.48761823 -13.1875 4.5625 C-12.11951172 4.11342285 -11.05152344 3.6643457 -9.95117188 3.20166016 C-8.95021484 2.78577637 -7.94925781 2.36989258 -6.91796875 1.94140625 C-6.01844482 1.56701416 -5.1189209 1.19262207 -4.19213867 0.80688477 C-2 0 -2 0 0 0 Z " fill="#FFB200" transform="translate(344,164)"/>
<path d="M0 0 C10.73534504 -0.51529656 18.80523297 -0.12984469 28 6 C26.58221442 9.46740532 25.05165886 10.93871079 21.89453125 12.91015625 C21.07533203 13.42513672 20.25613281 13.94011719 19.41210938 14.47070312 C18.55423828 14.99599609 17.69636719 15.52128906 16.8125 16.0625 C15.97396484 16.59166016 15.13542969 17.12082031 14.27148438 17.66601562 C9.6339004 20.55138208 5.08756023 23.01041285 0 25 C-3.6035969 16.89190697 -2.58941907 8.21010253 0 0 Z " fill="#B7D966" transform="translate(307,316)"/>
<path d="M0 0 C3.40414403 1.13471468 4.24276648 2.17225987 6.5 4.875 C8.58578225 7.35415347 10.67301287 9.7439576 13 12 C10.79447845 16.90904208 7.20987307 20.36587365 3.5625 24.25 C2.5405957 25.36761719 2.5405957 25.36761719 1.49804688 26.5078125 C0.83998047 27.21164062 0.18191406 27.91546875 -0.49609375 28.640625 C-1.09607178 29.28547852 -1.6960498 29.93033203 -2.31420898 30.59472656 C-4 32 -4 32 -7 32 C-7.69944139 20.75712721 -5.67274593 9.78059643 0 0 Z " fill="#B7D966" transform="translate(345,287)"/>
<path d="M0 0 C3.70032974 3.7554557 6.33483406 8.00450219 8 13 C-12.37087741 17.45612943 -12.37087741 17.45612943 -17.03125 14.875 C-19 13.5 -19 13.5 -22 11 C-20.64319732 6.55955487 -18.86646942 4.54835485 -15 2 C-10.35504627 -0.1113426 -4.98175998 -1.5972714 0 0 Z " fill="#B7D966" transform="translate(275,338)"/>
<path d="M0 0 C6.16494071 3.60874578 12.54673102 9.09273781 15 16 C15.13997227 18.78824758 15.1888913 21.46827116 15.125 24.25 C15.11597656 24.99507813 15.10695313 25.74015625 15.09765625 26.5078125 C15.07418358 28.33868059 15.03831525 30.16938238 15 32 C13.58034858 31.57228451 12.1643776 31.13234457 10.75 30.6875 C9.96109375 30.44386719 9.1721875 30.20023437 8.359375 29.94921875 C5.76173434 28.90414146 4.01508782 27.95322109 2 26 C-0.79780359 17.80454703 -0.22735269 8.53835665 0 0 Z " fill="#B7D966" transform="translate(321,287)"/>
<path d="M0 0 C0.66 0 1.32 0 2 0 C2.14695313 0.87011719 2.14695313 0.87011719 2.296875 1.7578125 C4.09102467 11.13069786 8.2725754 15.71084044 16 21 C15.67 21.66 15.34 22.32 15 23 C5.76 23 -3.48 23 -13 23 C-8.50380228 11.7595057 -8.50380228 11.7595057 -5.375 7.5625 C-4.78460938 6.75941406 -4.19421875 5.95632813 -3.5859375 5.12890625 C-3.06257812 4.42636719 -2.53921875 3.72382813 -2 3 C-1.34 2.01 -0.68 1.02 0 0 Z " fill="#B7D966" transform="translate(239,333)"/>
<path d="M0 0 C5.41993839 2.77491399 9.92552022 5.37491484 14 10 C14.52722656 10.59425781 15.05445313 11.18851562 15.59765625 11.80078125 C20.38719734 17.26968987 21.11748126 19.7161617 21 27 C16.91428898 28.40446316 13.82411781 27.93981977 9.92578125 26.33203125 C6.02587738 23.63453182 4.64343509 19.29534171 3 15 C2.6803125 14.19304687 2.360625 13.38609375 2.03125 12.5546875 C0.45612605 8.2522656 -0.35686709 4.63927223 0 0 Z " fill="#B7D966" transform="translate(282,298)"/>
<path d="M0 0 C8.18687221 4.99199525 14.0890223 11.15073709 18 20 C18 20.66 18 21.32 18 22 C16.06302033 22.33634376 14.12539514 22.66897165 12.1875 23 C11.10855469 23.185625 10.02960938 23.37125 8.91796875 23.5625 C6 24 6 24 3 24 C0.56907044 15.8390222 -0.40735653 8.50922528 0 0 Z " fill="#B7D966" transform="translate(301,292)"/>
<path d="M0 0 C5.79407555 -0.3103969 10.89955066 -0.03086568 16 3 C17.73046875 5.109375 17.73046875 5.109375 19 7 C17.59921602 8.53547475 16.17879097 10.05305148 14.75 11.5625 C13.56664062 12.83287109 13.56664062 12.83287109 12.359375 14.12890625 C10 16 10 16 7.8359375 15.8984375 C4.85524355 14.43980003 3.73995637 12.84192875 2 10 C1.1010098 6.69696859 0.49949311 3.38472303 0 0 Z " fill="#B7D966" transform="translate(242,331)"/>
<path d="M0 0 C-0.46345363 6.72007758 -1.9891178 10.34831779 -6.33984375 15.625 C-8.47746746 17.3954554 -9.94431241 17.48871829 -12.6875 17.6875 C-13.49574219 17.75324219 -14.30398438 17.81898438 -15.13671875 17.88671875 C-16.05904297 17.94279297 -16.05904297 17.94279297 -17 18 C-16.62280851 12.71931911 -14.84706954 9.51371691 -11 6 C-3.06849315 0 -3.06849315 0 0 0 Z " fill="#B7D966" transform="translate(395,181)"/>
<path d="M0 0 C0 4.95 0 9.9 0 15 C-8.875 13.125 -8.875 13.125 -10 12 C-10 8.53302795 -9.97050842 5.98023783 -7.44140625 3.42578125 C-2.71991404 0 -2.71991404 0 0 0 Z " fill="#B7D966" transform="translate(262,314)"/>
<path d="M0 0 C3.3 0.33 6.6 0.66 10 1 C7.18847304 4.22804947 5.32145242 5.6588327 1 6 C0.34 5.67 -0.32 5.34 -1 5 C-0.67 3.35 -0.34 1.7 0 0 Z " fill="#FFB200" transform="translate(306,210)"/>
</svg>
