<?xml version="1.0" encoding="UTF-8"?>
<svg version="1.1" xmlns="http://www.w3.org/2000/svg" width="500" height="500">
<path d="M0 0 C3 1 3 1 4.75390625 3.9140625 C5.36717318 5.14591754 5.9696452 6.38319231 6.5625 7.625 C6.86607422 8.22957031 7.16964844 8.83414063 7.48242188 9.45703125 C10.73498721 16.10388589 12.22954017 22.68063161 13 30 C14.32 29.01 15.64 28.02 17 27 C17.52098223 36.24261069 16.58221553 43.30556224 10.4375 50.5 C8.64191575 52.44618164 7.36733469 53.81633266 5 55 C5 58.63 5 62.26 5 66 C5.78375 64.989375 6.5675 63.97875 7.375 62.9375 C11.24348873 58.39179382 15.948091 55.13009051 21 52 C21.33 52 21.66 52 22 52 C22.45167272 58.32341807 21.73691103 62.7660035 18 68 C13.50026517 71.98840132 9.79626333 72.6002577 4 73 C4.495 78.445 4.495 78.445 5 84 C5.969375 82.80375 6.93875 81.6075 7.9375 80.375 C11.7232755 76.03294728 15.92231382 72.7301612 21 70 C21.66 70 22.32 70 23 70 C22.65681181 76.40617947 21.3693144 81.14759187 17 86 C12.54993669 89.20044958 9.54582575 90 4 90 C4.33 96.27 4.66 102.54 5 109 C5.94875 107.700625 6.8975 106.40125 7.875 105.0625 C13.29530392 98.10134355 19.83624535 92.57998909 26.875 87.3125 C32.67276182 82.87231269 35.34340562 77.64148595 38 71 C38.33 71 38.66 71 39 71 C43.07457929 89.06614566 40.84881267 111.69324495 32 128 C27.56360598 134.50815749 21.70592045 139.72547988 14 141.8125 C13.34 141.874375 12.68 141.93625 12 142 C13.30306791 135.66810203 15.00148491 129.66379574 17.125 123.5625 C17.67196233 121.98139727 18.21636521 120.39940608 18.7578125 118.81640625 C18.9964502 118.13006104 19.23508789 117.44371582 19.48095703 116.73657227 C20.09545716 114.98270734 20.09545716 114.98270734 20 113 C10.40675572 126.52647443 7.84001402 138.57074705 7.03515625 155.00390625 C6.95728071 156.47565141 6.87863463 157.94735597 6.79927063 159.41902161 C6.63266122 162.52832589 6.47015949 165.63780445 6.31097412 168.74749756 C5.93946755 175.9863444 5.54122628 183.22373744 5.14333344 190.46117401 C5.05558423 192.05748107 4.96804459 193.65379966 4.88071442 195.2501297 C4.19423285 207.78951355 3.46693194 220.3247476 2.55758667 232.85031128 C2.43629839 234.52740603 2.31853542 236.20475963 2.20437622 237.88235474 C2.04976915 240.13857751 1.88278727 242.3934719 1.7109375 244.6484375 C1.57631104 246.47640869 1.57631104 246.47640869 1.43896484 248.34130859 C1.29410645 249.21867676 1.14924805 250.09604492 1 251 C0.34 251.33 -0.32 251.66 -1 252 C-1.04345047 251.1335083 -1.08690094 250.2670166 -1.13166809 249.37426758 C-1.54664768 241.13762187 -1.97221699 232.90160233 -2.4091692 224.66609192 C-2.63335574 220.43391162 -2.85369338 216.20160965 -3.06469727 211.96875 C-3.26914992 207.8703418 -3.48441419 203.77262188 -3.70664024 199.67514038 C-3.78888063 198.12555195 -3.86746952 196.57576448 -3.94202614 195.02578735 C-4.83875618 176.50218543 -6.61856876 157.09989735 -20 143 C-21.32328598 141.98674189 -22.65543997 140.98485333 -24 140 C-23.56131592 140.89924194 -23.56131592 140.89924194 -23.11376953 141.81665039 C-21.77833791 144.56246944 -20.45161981 147.31241347 -19.125 150.0625 C-18.66480469 151.00544922 -18.20460938 151.94839844 -17.73046875 152.91992188 C-15.33842632 157.89467679 -13.29609301 162.62940771 -12 168 C-22.67906707 166.3437558 -29.6312173 161.70625225 -36 153 C-38.23577962 148.95687853 -40.12434823 144.78271649 -42 140.5625 C-45.23280382 133.31462299 -48.41896692 126.89564448 -53.58203125 120.82006836 C-55 119 -55 119 -56 116 C-46.2248598 112.74161993 -33.8654697 116.17344407 -24.87109375 120.5078125 C-17.50816976 125.01145022 -9.82080351 130.76879473 -5 138 C-4.48549667 125.84247697 -5.61705786 115.40394151 -14 106 C-16.86215848 103.73178617 -19.82468945 101.79934265 -23 100 C-22.31292969 100.79664063 -21.62585938 101.59328125 -20.91796875 102.4140625 C-20.00749445 103.48410446 -19.09735602 104.55443227 -18.1875 105.625 C-17.73568359 106.14707031 -17.28386719 106.66914063 -16.81835938 107.20703125 C-13.94719212 110.60213413 -11.84661672 113.91413046 -10 118 C-17.90614272 117.96698897 -23.07030056 116.26871517 -29 111 C-31.61245695 108.27791077 -34.10932202 105.4526495 -36.60864258 102.62695312 C-41.22806732 97.50401035 -45.41322854 95.19559049 -52 93 C-51 90 -51 90 -49.1015625 88.8671875 C-38.36020209 84.56386645 -28.96619308 83.89516817 -18 88 C-11.2074556 91.35460015 -7.18949995 95.76946161 -3 102 C-2.34 98.04 -1.68 94.08 -1 90 C-1.99 89.938125 -2.98 89.87625 -4 89.8125 C-8.71982422 89.12179402 -12.36276076 87.03787476 -16 84 C-19.08965964 79.5150102 -19.54283061 75.30316497 -20 70 C-15.96153796 71.42707037 -12.77865104 73.36877892 -9.3125 75.875 C-8.35988281 76.55304688 -7.40726562 77.23109375 -6.42578125 77.9296875 C-4 80 -4 80 -2 84 C-1.67 80.37 -1.34 76.74 -1 73 C-2.19625 72.9175 -3.3925 72.835 -4.625 72.75 C-8.98407103 72.17238458 -11.64923994 70.96999187 -15 68 C-18.73691103 62.7660035 -19.45167272 58.32341807 -19 52 C-12.85969997 55.13547235 -5.16960691 59.66078617 -2 66 C-1.67 62.37 -1.34 58.74 -1 55 C-2.32 54.34 -3.64 53.68 -5 53 C-10.72782613 47.94438818 -13.69778894 41.80851382 -14.17578125 34.203125 C-14.18599415 31.79288002 -14.1356221 29.40603659 -14 27 C-13.34 27 -12.68 27 -12 27 C-10.375 29 -10.375 29 -9 31 C-8.99742187 30.30777344 -8.99484375 29.61554688 -8.9921875 28.90234375 C-8.57389081 18.31943757 -4.82449058 9.32268711 0 0 Z M11 31 C12 33 12 33 12 33 Z " fill="#B7D966" transform="translate(390,142)"/>
<path d="M0 0 C13.17207375 10.08232805 21.26941255 23.33138023 23.8515625 39.76953125 C24.77729813 47.62671242 23.78051289 54.70043785 22.1640625 62.421875 C16.30872578 61.40615332 10.51395868 60.27432701 4.7265625 58.921875 C-19.1865793 53.77898315 -42.06449316 55.00584122 -66.03320312 58.96435547 C-69.29543118 59.49688294 -72.56138053 59.97233322 -75.8359375 60.421875 C-79.18230504 50.38277239 -77.27547229 37.76202385 -72.8359375 28.421875 C-68.56119474 20.11050512 -63.00853509 14.33033662 -55.8359375 8.421875 C-55.3409375 7.926875 -55.3409375 7.926875 -54.8359375 7.421875 C-64.98848936 12.63592042 -74.00238651 20.33834416 -77.8359375 31.421875 C-79.879249 38.02784983 -80.07842269 44.03543528 -79.9609375 50.921875 C-79.95191406 51.93507812 -79.94289062 52.94828125 -79.93359375 53.9921875 C-79.91022897 56.46885372 -79.87436561 58.94539671 -79.8359375 61.421875 C-82.8059375 62.411875 -85.7759375 63.401875 -88.8359375 64.421875 C-93.83764522 52.75122366 -93.10729456 39.25272815 -88.8359375 27.421875 C-82.38827134 11.71447644 -71.9109961 0.64593775 -56.48046875 -6.546875 C-37.28880398 -14.03077382 -16.7658602 -11.89757612 0 0 Z " fill="#FFB200" transform="translate(281.8359375,188.578125)"/>
<path d="M0 0 C2.4375 0.8125 2.4375 0.8125 4.4375 3.8125 C4.4375 5.7925 4.4375 7.7725 4.4375 9.8125 C12.3575 9.3175 12.3575 9.3175 20.4375 8.8125 C21.0975 6.8325 21.7575 4.8525 22.4375 2.8125 C25.0625 1.4375 25.0625 1.4375 27.4375 0.8125 C29.4375 2.375 29.4375 2.375 31.4375 4.8125 C31.6875 8.5625 31.6875 8.5625 31.4375 11.8125 C32.41589844 11.79509766 32.41589844 11.79509766 33.4140625 11.77734375 C38.2136914 11.72779006 42.71534685 11.81836249 47.4375 12.8125 C47.355 12.049375 47.2725 11.28625 47.1875 10.5 C47.4375 7.8125 47.4375 7.8125 49.1875 5.9375 C51.4375 4.8125 51.4375 4.8125 53.5625 5 C55.4375 5.8125 55.4375 5.8125 57.4375 7.8125 C57.5625 11.4375 57.5625 11.4375 57.4375 14.8125 C58.15035156 14.86148438 58.86320312 14.91046875 59.59765625 14.9609375 C65.14258491 15.39378523 70.15836449 16.05278816 75.4375 17.8125 C75.4375 19.7925 75.4375 21.7725 75.4375 23.8125 C73.56225253 23.66988409 71.68731036 23.52325143 69.8125 23.375 C68.76835937 23.29378906 67.72421875 23.21257812 66.6484375 23.12890625 C63.5618765 22.82475608 60.49681091 22.32238515 57.4375 21.8125 C57.4375 26.1025 57.4375 30.3925 57.4375 34.8125 C58.943125 34.915625 60.44875 35.01875 62 35.125 C68.04002381 35.65564809 73.85129289 36.86457595 79.76171875 38.19140625 C87.07982749 39.42794109 92.52231355 38.79961025 99.4375 36.5 C131.54374094 26.44724874 166.25624714 27.58038035 198.625 35.6875 C199.55771729 35.91969238 200.49043457 36.15188477 201.45141602 36.39111328 C210.62811586 38.84384136 218.86785485 41.82934196 224.4375 49.8125 C219.31881433 49.902105 214.63226556 49.61123768 209.5625 48.8125 C186.53460158 45.74659979 159.14316678 45.36417967 137.1171875 53.359375 C129.0469942 54.7240141 120.81461301 52.03193739 113.0625 50 C99.33742469 46.55186926 85.48798415 44.43265283 71.4375 42.8125 C70.55779541 42.7079248 69.67809082 42.60334961 68.77172852 42.49560547 C58.94145507 41.4994806 49.04833309 41.59052293 39.17797852 41.57226562 C36.03829864 41.56261769 32.89929112 41.53154064 29.75976562 41.5 C12.42567576 41.40837633 -4.33002458 43.0633385 -21.125 47.5 C-22.85443454 47.94544107 -24.58487071 48.38701599 -26.31640625 48.82421875 C-27.04158447 49.01459717 -27.7667627 49.20497559 -28.51391602 49.40112305 C-30.5625 49.8125 -30.5625 49.8125 -34.5625 49.8125 C-34.61235767 44.72625111 -34.64843386 39.64014803 -34.67236328 34.55371094 C-34.68235099 32.82744871 -34.69594583 31.10120309 -34.71337891 29.375 C-34.92006147 8.36632504 -34.92006147 8.36632504 -32.5625 2.8125 C-29.5625 0.8125 -29.5625 0.8125 -27 1 C-24.5625 1.8125 -24.5625 1.8125 -22.5625 4.8125 C-22.5625 6.7925 -22.5625 8.7725 -22.5625 10.8125 C-17.2825 10.8125 -12.0025 10.8125 -6.5625 10.8125 C-6.459375 9.36875 -6.35625 7.925 -6.25 6.4375 C-6.07421875 3.9765625 -6.07421875 3.9765625 -5.5625 1.8125 C-2.5625 -0.1875 -2.5625 -0.1875 0 0 Z M-22.5625 17.8125 C-22.5625 23.0925 -22.5625 28.3725 -22.5625 33.8125 C-14.37890662 33.7926751 -14.37890662 33.7926751 -6.5625 31.8125 C-6.5625 27.1925 -6.5625 22.5725 -6.5625 17.8125 C-11.8425 17.8125 -17.1225 17.8125 -22.5625 17.8125 Z M4.4375 17.8125 C4.4375 22.1025 4.4375 26.3925 4.4375 30.8125 C10.0475 30.8125 15.6575 30.8125 21.4375 30.8125 C21.4375 26.5225 21.4375 22.2325 21.4375 17.8125 C15.8275 17.8125 10.2175 17.8125 4.4375 17.8125 Z M31.4375 18.8125 C31.4375 23.1025 31.4375 27.3925 31.4375 31.8125 C36.84469589 32.73287377 41.95072045 32.89691199 47.4375 32.8125 C47.4375 28.5225 47.4375 24.2325 47.4375 19.8125 C42.03030411 18.89212623 36.92427955 18.72808801 31.4375 18.8125 Z " fill="#B7D966" transform="translate(103.5625,222.1875)"/>
<path d="M0 0 C0 0.66 0 1.32 0 2 C-1.30710937 2.15855469 -2.61421875 2.31710937 -3.9609375 2.48046875 C-34.36252164 6.36481324 -60.93849121 16.16426688 -83 38 C-84.19882813 39.10794922 -84.19882813 39.10794922 -85.421875 40.23828125 C-95.57044823 49.80943566 -102.33818725 61.89256376 -109 74 C-116.81733935 73.56328322 -123.90161939 71.83038002 -131.375 69.5625 C-132.44105469 69.24990234 -133.50710937 68.93730469 -134.60546875 68.61523438 C-143.10385648 66.08709765 -143.10385648 66.08709765 -147 64 C-139.6265198 39.72146764 -116.81145126 18.86697623 -95.10302734 6.95947266 C-65.21882658 -8.53979079 -31.59507722 -12.29284498 0 0 Z " fill="#B7D966" transform="translate(331,322)"/>
<path d="M0 0 C0 0.33 0 0.66 0 1 C-0.64211426 1.03440186 -1.28422852 1.06880371 -1.94580078 1.10424805 C-23.54038522 2.34101833 -43.53488489 5.22360209 -63 15 C-64.46953125 15.70769531 -64.46953125 15.70769531 -65.96875 16.4296875 C-89.64878265 28.47384204 -107.47616052 50.04675153 -120 73 C-124.83453722 71.59116247 -128.97225444 69.48045075 -133.25 66.875 C-133.90170166 66.4819165 -134.55340332 66.08883301 -135.22485352 65.68383789 C-140.84711668 62.22627415 -146.00310903 58.31496232 -151 54 C-145.73839499 39.32012203 -132.08162858 27.20170549 -120 18 C-119.2575 17.40703125 -118.515 16.8140625 -117.75 16.203125 C-85.20042693 -8.4350935 -37.81175885 -13.16062985 0 0 Z " fill="#B7D966" transform="translate(294,308)"/>
<path d="M0 0 C1.19882812 0.2489502 1.19882812 0.2489502 2.421875 0.50292969 C5.909387 1.27607586 8.37284682 1.99856454 11.375 4 C10.69211914 4.03963867 10.00923828 4.07927734 9.30566406 4.12011719 C-37.22895635 6.94181444 -72.23704868 20.61106893 -104.625 55 C-106.76834354 57.60320269 -108.70414782 60.22543573 -110.625 63 C-115.93442879 58.82023691 -120.00445487 54.2454706 -124.203125 48.9609375 C-127.54474749 44.87553451 -131.13481245 41.05427811 -134.75390625 37.21484375 C-136.625 35 -136.625 35 -136.625 33 C-135.05883789 31.63061523 -135.05883789 31.63061523 -132.84765625 30.05859375 C-132.03304932 29.47932129 -131.21844238 28.90004883 -130.37915039 28.30322266 C-90.75810276 0.83981712 -47.62662483 -9.93450108 0 0 Z " fill="#B7D966" transform="translate(243.625,291)"/>
<path d="M0 0 C0.87712646 -0.00012085 1.75425293 -0.0002417 2.65795898 -0.00036621 C17.34472384 0.02835802 31.31611373 1.15453665 45.6875 4.375 C46.52780762 4.55643555 47.36811523 4.73787109 48.23388672 4.92480469 C61.03999745 7.72749745 61.03999745 7.72749745 63.6875 10.375 C62.5722998 10.43445801 62.5722998 10.43445801 61.43457031 10.49511719 C26.70767825 12.43211795 -7.68105679 19.20062828 -36.5625 39.8203125 C-39.3125 41.375 -39.3125 41.375 -41.359375 41.19799805 C-43.87639486 40.1373888 -44.24671242 39.24389758 -45.3125 36.76171875 C-45.64056641 36.01349854 -45.96863281 35.26527832 -46.30664062 34.49438477 C-46.80454102 33.29060181 -46.80454102 33.29060181 -47.3125 32.0625 C-47.65990234 31.25031006 -48.00730469 30.43812012 -48.36523438 29.60131836 C-55.3125 13.12763104 -55.3125 13.12763104 -55.3125 7.375 C-51.93980912 6.57328728 -48.56396881 5.78563588 -45.1875 5 C-44.25550781 4.77828125 -43.32351562 4.5565625 -42.36328125 4.328125 C-28.19810924 1.05182671 -14.48314701 -0.03073963 0 0 Z " fill="#B7D966" transform="translate(141.3125,271.625)"/>
<path d="M0 0 C7.12560702 5.84639566 13.48991988 12.4230284 19.9543457 18.97485352 C26.7579557 25.91053154 26.7579557 25.91053154 33.94140625 32.4453125 C39.78037376 37.4328734 45.09515018 42.99007333 50.5 48.4375 C51.61955632 49.5620833 52.73934629 50.68643405 53.859375 51.81054688 C56.57561534 54.53769344 59.28868292 57.26795907 62 60 C61.26160754 61.44349674 60.50873357 62.87959051 59.75 64.3125 C59.33234375 65.11300781 58.9146875 65.91351563 58.484375 66.73828125 C56.91343217 69.13190204 55.3732963 70.43301591 53 72 C51.93007812 71.319375 50.86015625 70.63875 49.7578125 69.9375 C40.35952848 63.97306332 30.92001718 58.07962703 21.4375 52.25 C20.35742676 51.58524658 19.27735352 50.92049316 18.16455078 50.2355957 C12.94400984 47.02575657 7.71835023 43.82521933 2.47755432 40.64859009 C0.06383199 39.18461359 -2.34699276 37.71590478 -4.75753784 36.2467041 C-6.46905163 35.20631283 -8.1848092 34.1729132 -9.90063477 33.13964844 C-10.93373779 32.50961914 -11.96684082 31.87958984 -13.03125 31.23046875 C-13.94455078 30.67770264 -14.85785156 30.12493652 -15.79882812 29.55541992 C-18 28 -18 28 -20 25 C-19.46632813 24.35675781 -18.93265625 23.71351563 -18.3828125 23.05078125 C-13.53337284 17.1693674 -8.80842778 11.21584932 -4.18798828 5.15356445 C-1.08696744 1.08696744 -1.08696744 1.08696744 0 0 Z " fill="#FFB200" transform="translate(133,128)"/>
<path d="M0 0 C4.51157484 0.65884176 8.39231062 2.36766038 12.5 4.25390625 C13.23693085 4.58684692 13.97386169 4.9197876 14.73312378 5.26281738 C16.32611615 5.98283127 17.91811414 6.70504841 19.50921631 7.42922974 C23.75349213 9.36031335 28.00556588 11.27404595 32.2578125 13.1875 C33.1350296 13.58252213 34.0122467 13.97754425 34.91604614 14.38453674 C44.52873989 18.70359464 54.19679979 22.89275144 63.875 27.0625 C64.69307129 27.41514923 65.51114258 27.76779846 66.35400391 28.13113403 C70.90122824 30.09078596 75.44989093 32.04705597 80 34 C79.51424554 38.7765855 78.91138899 42.56340198 77 47 C66.91190538 45.62705674 56.88720069 43.9913948 46.86328125 42.21484375 C45.36592405 41.95092224 43.86854299 41.68713606 42.37113953 41.42347717 C39.26579926 40.8761627 36.16075032 40.32723277 33.0559082 39.77709961 C29.07760001 39.07233904 25.09857061 38.37174647 21.11932087 37.67232418 C18.04187516 37.13094322 14.96481517 36.5873959 11.88786888 36.04318428 C10.41956585 35.7837586 8.95114338 35.525008 7.48259926 35.26695061 C5.44153373 34.90795579 3.40100622 34.54604617 1.3605957 34.18334961 C0.20147171 33.97842392 -0.95765228 33.77349823 -2.15190125 33.56236267 C-5 33 -5 33 -8 32 C-7.83483514 25.04806105 -6.53133486 18.69515008 -4.5625 12.0625 C-4.2363269 10.96240601 -4.2363269 10.96240601 -3.90356445 9.84008789 C-2.8507394 6.40861413 -1.76086124 3.13679003 0 0 Z " fill="#FFB200" transform="translate(101,178)"/>
<path d="M0 0 C2.74701016 2.42036861 4.11292604 4.92373937 5.6796875 8.21484375 C6.44490723 9.81199219 6.44490723 9.81199219 7.22558594 11.44140625 C7.76989258 12.59511719 8.31419922 13.74882813 8.875 14.9375 C9.45044489 16.14602458 10.02629829 17.35435471 10.60253906 18.5625 C15.80237974 29.48894502 20.88745073 40.46939274 25.96484375 51.453125 C29.91758903 59.99676057 33.94992424 68.50216663 38 77 C35.61696501 79.4789559 33.35274346 81.05722452 30.3125 82.6875 C29.50425781 83.12449219 28.69601563 83.56148438 27.86328125 84.01171875 C27.24839844 84.33785156 26.63351563 84.66398437 26 85 C25.39414063 84.21238281 24.78828125 83.42476563 24.1640625 82.61328125 C23.76469482 82.09411133 23.36532715 81.57494141 22.95385742 81.04003906 C22.05294719 79.8688392 21.15206931 78.69761445 20.2512207 77.52636719 C18.02368033 74.63029498 15.79563312 71.73461829 13.56640625 68.83984375 C7.82426745 61.38166347 2.10104864 53.9091945 -3.61328125 46.4296875 C-5.91965017 43.41134378 -8.22993545 40.39605192 -10.54296875 37.3828125 C-11.12199951 36.62774414 -11.70103027 35.87267578 -12.29760742 35.09472656 C-13.39712098 33.66108577 -14.49748409 32.22809596 -15.59887695 30.79589844 C-16.59518198 29.49596821 -17.58717118 28.19271556 -18.57421875 26.88574219 C-19.54491213 25.60190046 -20.52720389 24.3267647 -21.51953125 23.05957031 C-22.75878114 21.43028103 -23.889868 19.71986359 -25 18 C-23.71697652 14.15092955 -22.35179614 13.72263742 -18.90625 11.6796875 C-17.87628906 11.06222656 -16.84632813 10.44476563 -15.78515625 9.80859375 C-14.15900391 8.85146484 -14.15900391 8.85146484 -12.5 7.875 C-10.36399903 6.60254282 -8.22855151 5.32915599 -6.09375 4.0546875 C-4.66579102 3.21139893 -4.66579102 3.21139893 -3.20898438 2.35107422 C-1.1040899 1.18218175 -1.1040899 1.18218175 0 0 Z " fill="#FFB200" transform="translate(179,94)"/>
<path d="M0 0 C3.43852482 1.28480681 6.44758426 2.77527597 9.5390625 4.75 C10.36664063 5.2759375 11.19421875 5.801875 12.046875 6.34375 C12.89765625 6.8903125 13.7484375 7.436875 14.625 8 C15.48351562 8.5465625 16.34203125 9.093125 17.2265625 9.65625 C20.50287296 11.74489792 23.76703509 13.84469006 27 16 C25.63377254 19.96487659 23.8511212 22.64201106 21.125 25.8125 C17.3678426 30.29472286 13.79783118 34.86628098 10.3125 39.5625 C5.99252615 45.37422348 1.59230178 51.11331157 -2.875 56.8125 C-10.11641244 66.0619755 -17.08161036 75.50747366 -24 85 C-25.46063143 84.21258141 -26.91843173 83.4199095 -28.375 82.625 C-29.59316406 81.96371094 -29.59316406 81.96371094 -30.8359375 81.2890625 C-33 80 -33 80 -35 78 C-34.63537023 73.7550354 -32.85677244 70.23698715 -31.04296875 66.42578125 C-30.59435234 65.47646225 -30.59435234 65.47646225 -30.13667297 64.50796509 C-29.15851645 62.44044678 -28.1729352 60.37655752 -27.1875 58.3125 C-26.1608622 56.14614269 -25.136256 53.97883193 -24.11172485 51.81147766 C-23.41816223 50.34461628 -22.72396515 48.87805473 -22.02914429 47.41178894 C-18.80658968 40.6081063 -15.64520296 33.77731081 -12.5 26.9375 C-11.53659368 24.84498976 -10.5730577 22.75253922 -9.609375 20.66015625 C-9.16658203 19.69867676 -8.72378906 18.73719727 -8.26757812 17.74658203 C-5.53293317 11.82116683 -2.76935611 5.90925988 0 0 Z " fill="#FFB200" transform="translate(315,94)"/>
<path d="M0 0 C0.91465953 10.75260637 1.82751452 21.50536427 2.73806 32.25831985 C3.16090983 37.25122805 3.58438329 42.24408172 4.00927734 47.23681641 C4.41922689 52.05421559 4.82754431 56.87175056 5.23472595 61.68938446 C5.39043442 63.52824596 5.54673296 65.36705759 5.70362854 67.20581818 C5.92311752 69.77933557 6.14051628 72.35302157 6.35742188 74.92675781 C6.45560463 76.0693531 6.45560463 76.0693531 6.55577087 77.23503113 C6.82978898 80.50968451 7 83.71033798 7 87 C2.45240084 88.23324723 -1.28134231 89.05466946 -6 89 C-8.72349256 80.25786775 -11.43561582 71.51222315 -14.14373779 62.76531982 C-14.75088062 60.80453716 -15.35819814 58.84380859 -15.96563721 56.88311768 C-18.13343437 49.88535908 -20.29775221 42.88653645 -22.45849609 35.88659668 C-23.19595061 33.49916516 -23.93439863 31.1120403 -24.67382812 28.72521973 C-25.7240104 25.33455407 -26.77062155 21.94280541 -27.81640625 18.55078125 C-28.13787125 17.51554825 -28.45933624 16.48031525 -28.7905426 15.41371155 C-29.08210739 14.46548019 -29.37367218 13.51724884 -29.67407227 12.5402832 C-29.9311647 11.70841995 -30.18825714 10.8765567 -30.45314026 10.01948547 C-31 8 -31 8 -31 6 C-26.90710015 5.14297549 -22.81367049 4.28854292 -18.71972656 3.43652344 C-17.3266737 3.14622291 -15.93376895 2.85521074 -14.54101562 2.56347656 C-12.54074871 2.14461725 -10.53996563 1.72830802 -8.5390625 1.3125 C-6.73236084 0.93544922 -6.73236084 0.93544922 -4.88916016 0.55078125 C-2 0 -2 0 0 0 Z " fill="#FFB200" transform="translate(235,78)"/>
<path d="M0 0 C3.05413831 2.93032189 5.69699001 5.99935345 8.25 9.375 C9.30960938 10.74785156 9.30960938 10.74785156 10.390625 12.1484375 C12.27529247 15.48777549 12.51030552 17.22273854 12 21 C10.8984375 23.45703125 10.8984375 23.45703125 9.375 25.8125 C8.88773437 26.58207031 8.40046875 27.35164063 7.8984375 28.14453125 C7.27195312 29.08683594 6.64546875 30.02914062 6 31 C5.60022949 31.69915527 5.20045898 32.39831055 4.78857422 33.11865234 C0.97586488 39.47494354 -3.16476358 42.5281643 -9.625 46 C-11.57444347 47.09624766 -13.52227752 48.19536075 -15.46875 49.296875 C-16.51160156 49.88146484 -17.55445313 50.46605469 -18.62890625 51.06835938 C-22.30457919 53.17452423 -25.9223748 55.36018536 -29.53125 57.578125 C-30.16308197 57.96601196 -30.79491394 58.35389893 -31.44589233 58.75354004 C-33.9613491 60.29969281 -36.47544315 61.84799177 -38.98614502 63.40185547 C-40.74051298 64.48617071 -42.49876377 65.56392526 -44.2578125 66.640625 C-45.2698877 67.26485352 -46.28196289 67.88908203 -47.32470703 68.53222656 C-50 70 -50 70 -54 71 C-56.31 67.7 -58.62 64.4 -61 61 C-55.60897614 54.45182788 -49.64999102 48.50417433 -43.65234375 42.51953125 C-42.55173919 41.41825175 -41.45128299 40.31682396 -40.35096741 39.21525574 C-38.05550373 36.91832524 -35.75826023 34.62319415 -33.4597168 32.3293457 C-30.52213793 29.39747701 -27.5890902 26.46112278 -24.65735531 23.52341175 C-22.39001905 21.25245389 -20.1202965 18.98389304 -17.84985542 16.71603966 C-16.76750988 15.63435825 -15.68589853 14.55194165 -14.60505486 13.46875954 C-13.09320277 11.95435309 -11.57815655 10.44321377 -10.06225586 8.93286133 C-9.20321152 8.07461258 -8.34416718 7.21636383 -7.45909119 6.33210754 C-5.07149904 4.06780694 -2.60008704 2.01435204 0 0 Z " fill="#FFB200" transform="translate(362,128)"/>
<path d="M0 0 C4.41849509 0.78167877 8.83441558 1.57705682 13.25 2.375 C15.13138672 2.70757812 15.13138672 2.70757812 17.05078125 3.046875 C18.25605469 3.26601562 19.46132813 3.48515625 20.703125 3.7109375 C22.36843262 4.00943604 22.36843262 4.00943604 24.06738281 4.31396484 C26.7053859 4.93108012 28.62741545 5.750019 31 7 C27.89021264 17.3968086 24.77846094 27.79302701 21.66417789 38.18848991 C20.21826092 43.01518062 18.77302952 47.84207442 17.3293457 52.66943359 C15.93691256 57.32533107 14.54270371 61.98069333 13.14724541 66.63568497 C12.61432637 68.41455134 12.08205489 70.19361184 11.55043221 71.97286606 C10.80753542 74.45882262 10.06236968 76.94408812 9.31665039 79.42919922 C9.09582794 80.17006775 8.87500549 80.91093628 8.64749146 81.67425537 C7.11405216 86.77189568 7.11405216 86.77189568 6 89 C4.3954444 88.85851011 2.79136233 88.71164314 1.1875 88.5625 C-0.15248047 88.44068359 -0.15248047 88.44068359 -1.51953125 88.31640625 C-4 88 -4 88 -7 87 C-6.23728819 76.83766938 -5.47244136 66.67550188 -4.7049036 56.51353455 C-4.34853354 51.79441963 -3.99288621 47.07525261 -3.63891602 42.35595703 C-3.29699274 37.79763884 -2.95313776 33.23947004 -2.60796928 28.68139648 C-2.47692156 26.94642266 -2.34655816 25.211397 -2.21690559 23.47631836 C-2.03454312 21.03745496 -1.84970047 18.59879084 -1.66430664 16.16015625 C-1.61179749 15.45021011 -1.55928833 14.74026398 -1.50518799 14.00880432 C-1.14489949 9.31434902 -0.6130396 4.66650303 0 0 Z " fill="#FFB200" transform="translate(261,78)"/>
<path d="M0 0 C2.13440986 2.72207777 3.05356976 5.23488056 4.1484375 8.51171875 C8.31066786 19.78757917 14.91841065 25.69170085 24.7734375 32.26171875 C24.1134375 33.91171875 23.4534375 35.56171875 22.7734375 37.26171875 C18.89417979 36.63509317 15.69740154 35.4614068 12.13671875 33.8125 C11.02006836 33.30122559 9.90341797 32.78995117 8.75292969 32.26318359 C8.15782593 31.98867371 7.56272217 31.71416382 6.94958496 31.43133545 C-36.55244052 11.37207895 -36.55244052 11.37207895 -82.2265625 -2.73828125 C-81.8965625 -3.72828125 -81.5665625 -4.71828125 -81.2265625 -5.73828125 C-59.07247809 -9.42572514 -19.46669633 -15.19768398 0 0 Z " fill="#B7D966" transform="translate(335.2265625,284.73828125)"/>
<path d="M0 0 C4.00638836 1.42044678 7.18022159 3.33093098 10.625 5.8125 C11.56601562 6.47894531 12.50703125 7.14539063 13.4765625 7.83203125 C16.0505386 10.04341938 17.41549238 12.02778666 19 15 C19.33 15.33 19.66 15.66 20 16 C21.6880039 15.99406677 23.37592105 15.94459748 25.0625 15.875 C35.55372872 15.88866045 35.55372872 15.88866045 39 19 C40.95640987 24.18162111 41.07977564 29.51542504 41 35 C38.94409546 35.86992154 36.87994664 36.72037689 34.8125 37.5625 C33.08966797 38.27599609 33.08966797 38.27599609 31.33203125 39.00390625 C27.87324466 40.03789286 26.33894041 40.2719773 23 39 C17.81170009 34.67461899 14.7598023 29.05033581 12 23 C11.67 22.67 11.34 22.34 11 22 C11 23.65 11 25.3 11 27 C7.75 26.9375 7.75 26.9375 4 26 C2.12208407 23.78872621 1.22461094 21.68472399 0 19 C-0.33 18.34 -0.66 17.68 -1 17 C-1.09792892 14.4884113 -1.13907983 12.01090234 -1.125 9.5 C-1.12886719 8.81035156 -1.13273437 8.12070312 -1.13671875 7.41015625 C-1.12666646 2.25333293 -1.12666646 2.25333293 0 0 Z " fill="#B7D966" transform="translate(274,350)"/>
<path d="M0 0 C0 6.27 0 12.54 0 19 C-1.98 19.66 -3.96 20.32 -6 21 C-7.63124288 21.60852007 -9.25665382 22.23296758 -10.875 22.875 C-11.74640625 23.22046875 -12.6178125 23.5659375 -13.515625 23.921875 C-15.68224289 24.8621054 -17.59930018 25.92392135 -19.625 27.125 C-25.7458914 30.35053198 -33.22492438 30.37511438 -40 31 C-40.50757862 29.58603098 -41.00574925 28.16868271 -41.5 26.75 C-41.91765625 25.56664062 -41.91765625 25.56664062 -42.34375 24.359375 C-43 22 -43 22 -43 18 C-36.87449427 15.30287242 -30.74839126 12.60711735 -24.62109375 9.9140625 C-20.69323909 8.18717539 -16.76796903 6.45487411 -12.84765625 4.7109375 C-12.11160156 4.38488525 -11.37554687 4.05883301 -10.6171875 3.72290039 C-9.27604283 3.12865984 -7.93613548 2.53161661 -6.59765625 1.93139648 C-2.22549716 0 -2.22549716 0 0 0 Z " fill="#FFB200" transform="translate(358,194)"/>
<path d="M0 0 C0.85271484 0.43119141 0.85271484 0.43119141 1.72265625 0.87109375 C0.21658091 5.37893306 -3.40703072 7.30808187 -7.21484375 9.74609375 C-7.88346436 10.18228027 -8.55208496 10.6184668 -9.2409668 11.06787109 C-24.43578044 20.87109375 -24.43578044 20.87109375 -28.27734375 20.87109375 C-31.35233563 12.75653184 -31.76854237 2.95597478 -28.27734375 -5.12890625 C-18.69636555 -8.32256565 -8.58018284 -4.25329818 0 0 Z " fill="#B7D966" transform="translate(347.27734375,361.12890625)"/>
<path d="M0 0 C3.81316478 1.58956284 6.372784 4.00760697 9.3125 6.875 C10.21613281 7.73867188 11.11976563 8.60234375 12.05078125 9.4921875 C14 12 14 12 13.80834961 13.93603516 C12.87674618 16.31470487 11.76692109 17.67621145 10.015625 19.53125 C9.40976562 20.17707031 8.80390625 20.82289063 8.1796875 21.48828125 C7.22449219 22.48408203 7.22449219 22.48408203 6.25 23.5 C5.31800781 24.49580078 5.31800781 24.49580078 4.3671875 25.51171875 C1.09818126 28.9669342 -2.17909559 32.1416135 -6 35 C-9.38951311 24.83146066 -5.2985154 10.90519659 -0.87109375 1.63671875 C-0.58363281 1.09660156 -0.29617188 0.55648438 0 0 Z " fill="#B7D966" transform="translate(359,325)"/>
<path d="M0 0 C6.8125 9.39655172 6.8125 9.39655172 6.8125 12.5 C3.42130723 13.23189922 0.02419225 13.9312873 -3.375 14.625 C-4.81456055 14.93630859 -4.81456055 14.93630859 -6.28320312 15.25390625 C-7.21455078 15.44082031 -8.14589844 15.62773437 -9.10546875 15.8203125 C-9.95906982 15.99836426 -10.8126709 16.17641602 -11.69213867 16.35986328 C-17.50672073 16.68640375 -21.10055206 13.11172143 -25.1875 9.5 C-19.54798162 2.42637729 -9.42014312 -6.45952671 0 0 Z " fill="#B7D966" transform="translate(286.1875,380.5)"/>
<path d="M0 0 C3.71286871 2.35130896 6.83907232 4.58445576 9.6875 7.9375 C10.24824219 8.58589844 10.80898438 9.23429687 11.38671875 9.90234375 C12.18529297 10.94068359 12.18529297 10.94068359 13 12 C13.55945313 12.72703125 14.11890625 13.4540625 14.6953125 14.203125 C16.52392404 18.12314255 16.32689735 21.54837089 16.1875 25.8125 C16.16719727 26.99489258 16.16719727 26.99489258 16.14648438 28.20117188 C16.11133456 30.13441169 16.05753361 32.06729682 16 34 C14.58208592 33.54554036 13.16571954 33.08625056 11.75 32.625 C10.56664062 32.24214844 10.56664062 32.24214844 9.359375 31.8515625 C7.09404247 31.03394248 5.05054483 30.26638043 3 29 C0.3436532 21.86980595 -0.12931171 14.61222336 -0.0625 7.0625 C-0.05798828 6.37865234 -0.05347656 5.69480469 -0.04882812 4.99023438 C-0.0371956 3.32678396 -0.01926694 1.6633795 0 0 Z " fill="#B7D966" transform="translate(334,325)"/>
<path d="M0 0 C9.96868534 3.7709913 18.15097047 10.30194093 23 20 C23.13357453 23.67329964 23.1671568 26.49852959 22 30 C11.698017 28.42266289 11.698017 28.42266289 8.265625 25.546875 C3.74025627 18.78820742 0 8.13626057 0 0 Z " fill="#B7D966" transform="translate(292,337)"/>
<path d="M0 0 C0.66 0 1.32 0 2 0 C2.07476562 0.6290625 2.14953125 1.258125 2.2265625 1.90625 C3.34437577 9.18299521 5.7342328 14.75724484 11.7265625 19.3125 C13.14096825 20.22415489 14.56921362 21.1142751 16 22 C16 22.66 16 23.32 16 24 C6.1 24 -3.8 24 -14 24 C-11.05948512 15.17845536 -6.53410585 6.72079459 0 0 Z " fill="#B7D966" transform="translate(247,374)"/>
<path d="M0 0 C9.35612807 3.37274634 14.61892481 10.3288062 19 19 C19.33 19.99 19.66 20.98 20 22 C17.89679937 22.50404808 15.79240209 23.00310508 13.6875 23.5 C12.51574219 23.7784375 11.34398437 24.056875 10.13671875 24.34375 C7 25 7 25 4 25 C1.30202781 16.68549452 0.36900907 8.71624869 0 0 Z " fill="#B7D966" transform="translate(312,331)"/>
<path d="M0 0 C14.35287509 1.61842508 14.35287509 1.61842508 19 6 C19 9 19 9 17.03125 11.26171875 C16.1959375 12.06222656 15.360625 12.86273438 14.5 13.6875 C13.6646875 14.49574219 12.829375 15.30398438 11.96875 16.13671875 C11.3190625 16.75160156 10.669375 17.36648438 10 18 C5.73805542 16.53936668 3.92307335 15.17958374 1.78125 11.0859375 C0.43281978 7.4856288 0.17310025 3.81686057 0 0 Z " fill="#B7D966" transform="translate(250,371)"/>
<path d="M0 0 C0 5.61 0 11.22 0 17 C-7.71484375 15.046875 -7.71484375 15.046875 -10 14 C-10.87890625 12.04296875 -10.87890625 12.04296875 -11 10 C-9.50262825 6.35015635 -4.53498237 0 0 0 Z " fill="#B7D966" transform="translate(271,353)"/>
<path d="M0 0 C1.23556641 0.01740234 1.23556641 0.01740234 2.49609375 0.03515625 C3.32238281 0.04417969 4.14867187 0.05320313 5 0.0625 C5.63808594 0.07410156 6.27617187 0.08570313 6.93359375 0.09765625 C6.93359375 1.08765625 6.93359375 2.07765625 6.93359375 3.09765625 C3.49838895 5.38779278 1.94826275 5.27608598 -2.06640625 5.09765625 C-2.62890625 3.16015625 -2.62890625 3.16015625 -3.06640625 1.09765625 C-2.06640625 0.09765625 -2.06640625 0.09765625 0 0 Z " fill="#FFB200" transform="translate(320.06640625,243.90234375)"/>
</svg>
